# xmcd
#
# Track frame offsets: 
#        150
#        15778
#        28411
#        47285
#        66159
#        79600
#        103928
#        118170
#        132196
#        145065
#        168286
#        185230
#
# Disc length: 2712 seconds
#
# Revision: 0
# Processed by: cddbd v1.5.2PL0 Copyright (c) Steve Scherf et al.
# Submitted via: ExactAudioCopy v0.99pb5
#
DISCID=9e0a960c
DTITLE=Kris Kristofferson and Rita Coolidge  - Full Moon  
DYEAR=1900
DGENRE=
TTITLE0=Hard to Be Friends
TTITLE1=It's All Over (All Over Again)
TTITLE2=I Never Had It So Good
TTITLE3=From the Bottle to the Bottom
TTITLE4=Take Time to Love
TTITLE5=Tennessee Blues
TTITLE6=Part of Your Life
TTITLE7=I'm Down (But I Keep Falling)
TTITLE8=I Heard the Bluebirds Sing
TTITLE9=After the Fact
TTITLE10=Loving Arms
TTITLE11=A Song I'd Like to Sing
EXTD=
EXTT0=
EXTT1=
EXTT2=
EXTT3=
EXTT4=
EXTT5=
EXTT6=
EXTT7=
EXTT8=
EXTT9=
EXTT10=
EXTT11=
PLAYORDER=
